<?xml version="1.0" encoding="UTF-8" standalone="no"?>
<!-- Generated by Pixelmator Pro 3.6.18 -->

<svg
   width="1200"
   height="1080"
   viewBox="0 0 1200 1080"
   version="1.1"
   id="svg894"
   sodipodi:docname="joystick (copy).svg"
   inkscape:version="1.1.2 (0a00cf5339, 2022-02-04)"
   xmlns:inkscape="http://www.inkscape.org/namespaces/inkscape"
   xmlns:sodipodi="http://sodipodi.sourceforge.net/DTD/sodipodi-0.dtd"
   xmlns="http://www.w3.org/2000/svg"
   xmlns:svg="http://www.w3.org/2000/svg">
  <defs
     id="defs898" />
  <sodipodi:namedview
     id="namedview896"
     pagecolor="#505050"
     bordercolor="#eeeeee"
     borderopacity="1"
     inkscape:pageshadow="0"
     inkscape:pageopacity="0"
     inkscape:pagecheckerboard="0"
     showgrid="false"
     inkscape:zoom="0.74722222"
     inkscape:cx="614.27509"
     inkscape:cy="540"
     inkscape:window-width="1858"
     inkscape:window-height="1016"
     inkscape:window-x="0"
     inkscape:window-y="0"
     inkscape:window-maximized="1"
     inkscape:current-layer="svg894" />
  <g
     id="Group">
    <path
       id="Path"
       fill="#2e2e2e"
       fill-rule="evenodd"
       stroke="none"
       d="M 0 0.000122 L 1200 0.000122 L 1200 1080.000977 L 0 1080.000977 Z" />
  </g>
  <g
     id="g1">
    <path
       id="path1"
       fill="#333333"
       fill-rule="evenodd"
       stroke="none"
       d="M 0.001364 1080.000488 L 0.000652 128.051331 L 951.9505 1080.001221 L 0.001364 1080.000488 Z" />
  </g>
  <g
     inkscape:groupmode="layer"
     id="layer2"
     inkscape:label="Layer 1" />
  <g
     style="clip-rule:evenodd;fill-rule:evenodd;image-rendering:optimizeQuality;shape-rendering:geometricPrecision;text-rendering:geometricPrecision;fill:#f2f2f2"
     id="g1301"
     transform="translate(344.89219,295.37546)">
    <path
       fill-rule="nonzero"
       d="m 411.164,74.863 -0.117,-0.117 c -3.1,-3.046 -7.07,-4.558 -11.004,-4.474 -4.494,0.096 -7.992,2.416 -10.804,5.064 l -25.613,25.536 c -3.138,3.121 -7.988,3.471 -11.511,1.057 -6.211,-4.004 -12.878,-7.594 -19.793,-10.803 -7.657,-3.555 -15.65,-6.632 -23.691,-9.287 -3.824,-1.259 -6.248,-4.814 -6.248,-8.633 l -0.004,-39.999 c 0,-8.624 -6.4,-15.018 -15.023,-15.018 h -50.204 c -8.349,0 -14.939,6.692 -14.939,15.018 v 36.625 c 0,4.473 -3.232,8.194 -7.488,8.953 -15.292,3.639 -30.301,9.321 -44.098,16.863 A 9.065,9.065 0 0 1 159.938,94.152 C 150.195,84.553 140.08,74.963 130.56,65.187 c -5.824,-5.843 -14.576,-5.243 -20.392,0.273 -11.916,11.065 -23.836,23.907 -35.43,35.501 -5.888,5.998 -6.014,15.148 -0.033,21.13 l 0.459,0.494 25.707,25.789 c 3.121,3.138 3.47,7.989 1.057,11.511 -4.004,6.21 -7.595,12.88 -10.806,19.799 -3.552,7.655 -6.631,15.648 -9.283,23.685 -1.258,3.824 -4.814,6.249 -8.633,6.249 l -39.996,0.004 c -8.603,0 -15.021,6.416 -15.021,15.022 v 50.205 c 0,8.354 6.693,14.934 15.021,14.934 h 36.622 c 4.473,0 8.194,3.233 8.953,7.488 3.705,15.583 9.53,30.55 16.938,44.737 1.881,3.603 1.098,7.895 -1.641,10.617 -9.621,9.598 -19.198,19.291 -28.891,28.81 -5.851,5.831 -5.25,14.581 0.275,20.405 10.845,11.93 23.758,24.041 35.208,35.623 6.027,5.575 15.688,5.727 21.711,0.062 L 148.303,411.2 c 3.139,-3.192 8.063,-3.569 11.622,-1.102 13.371,8.604 28.387,15.096 43.445,20.061 3.824,1.258 6.248,4.814 6.248,8.632 l 0.004,39.999 c 0,8.579 6.442,15.021 15.021,15.021 h 50.204 c 8.35,0 14.939,-6.696 14.939,-15.021 v -36.624 a 9.097,9.097 0 0 1 7.491,-8.953 c 15.664,-3.72 30.469,-9.487 44.732,-16.935 a 9.065,9.065 0 0 1 10.617,1.64 l 28.4,28.473 c 5.378,5.725 14.516,6.152 20.264,0.703 0.433,-0.415 0.795,-0.795 1.209,-1.203 l 34.966,-34.563 c 2.829,-3.063 4.26,-7.011 4.26,-10.964 0,-3.898 -1.392,-7.765 -4.197,-10.749 l -26.33,-25.918 a 9.07,9.07 0 0 1 -1.099,-11.623 c 8.618,-13.382 15.084,-28.362 20.063,-43.446 1.258,-3.824 4.814,-6.248 8.632,-6.248 l 39.996,-0.004 c 8.603,0 15.021,-6.412 15.021,-15.019 v -50.204 c 0,-8.355 -6.691,-14.939 -15.021,-14.939 h -36.621 c -4.531,0 -8.29,-3.316 -8.981,-7.653 a 198.021,198.021 0 0 0 -7.136,-22.732 c -2.827,-7.413 -6.064,-14.543 -9.702,-21.205 a 9.067,9.067 0 0 1 1.495,-10.689 c 9.593,-9.735 19.193,-19.892 28.977,-29.386 5.834,-5.813 5.231,-14.565 -0.275,-20.372 C 435.665,98.349 422.661,86.334 411.164,74.863 Z M 193.251,356.361 c 0.86,5.43 -2.842,10.533 -8.273,11.394 -5.43,0.861 -10.532,-2.842 -11.393,-8.272 l -4.238,-26.228 c -0.828,-5.219 2.561,-10.135 7.648,-11.274 l 26.518,-6.002 c 5.365,-1.206 10.695,2.166 11.901,7.531 1.206,5.365 -2.166,10.695 -7.532,11.901 l -5.134,1.162 c 23.846,15.009 47.68,19.172 69.094,15.696 17.024,-2.765 32.609,-10.329 45.505,-21.079 12.946,-10.792 23.19,-24.799 29.478,-40.396 9.495,-23.55 9.897,-50.732 -3.152,-75.87 -2.295,-4.454 -0.546,-9.926 3.908,-12.221 4.453,-2.295 9.926,-0.546 12.221,3.907 15.674,30.196 15.223,62.766 3.865,90.935 -7.398,18.35 -19.466,34.844 -34.736,47.571 -15.32,12.769 -33.869,21.762 -54.177,25.059 -25.751,4.182 -54.198,-0.737 -82.281,-18.629 z M 316.88,152.326 a 9.076,9.076 0 0 1 18.049,-1.919 l 2.768,25.933 a 9.077,9.077 0 0 1 -7.32,9.874 l -27.126,5.212 c -4.925,0.94 -9.682,-2.288 -10.623,-7.212 -0.941,-4.924 2.288,-9.682 7.212,-10.622 l 6.834,-1.312 c -18.543,-11.532 -39.979,-15.411 -60.7,-12.999 -17.217,2.005 -33.899,8.321 -48.007,18.173 -14.038,9.801 -25.535,23.086 -32.472,39.07 -9.607,22.144 -10.524,49.708 2.558,80.745 1.942,4.61 -0.221,9.925 -4.832,11.866 -4.61,1.942 -9.925,-0.221 -11.867,-4.831 -15.204,-36.069 -13.944,-68.548 -2.486,-94.957 8.336,-19.208 22.042,-35.094 38.726,-46.744 16.61,-11.598 36.179,-19.026 56.32,-21.371 25.048,-2.916 51.059,1.98 73.532,16.4 z M 423.799,61.852 c 11.961,11.853 24.148,23.776 35.893,35.82 12.266,12.935 12.731,33.001 -0.085,45.743 -8.118,8.118 -16.146,16.363 -24.207,24.542 a 192.72,192.72 0 0 1 7.634,17.406 212.268,212.268 0 0 1 6.123,18.662 h 29.633 c 18.279,0 33.21,14.826 33.21,33.128 v 50.204 c 0,18.584 -14.608,33.208 -33.21,33.208 h -33.516 c -4.366,12.17 -9.673,24.1 -16.212,35.266 l 21.572,21.237 c 6.206,6.55 9.28,14.93 9.28,23.296 0,8.391 -3.093,16.81 -9.21,23.376 l -35.309,34.906 c -0.555,0.55 -1.082,1.06 -1.636,1.628 -12.417,11.736 -32.017,11.765 -44.453,0.041 -8.356,-7.572 -16.832,-16.875 -24.89,-24.956 -11.701,5.716 -23.881,10.402 -36.441,13.855 v 29.576 c 0,18.274 -14.83,33.21 -33.128,33.21 h -50.204 c -18.627,0 -33.21,-14.583 -33.21,-33.21 v -33.529 a 264.065,264.065 0 0 1 -6.075,-2.283 c -10.026,-3.899 -19.9,-8.471 -29.19,-13.915 l -21.236,21.568 c -13.008,12.332 -33.596,12.268 -46.672,0.07 C 76.212,438.71 64.215,426.492 52.321,414.345 40.039,401.394 39.571,381.323 52.407,368.569 60.472,360.504 68.568,352.466 76.645,344.412 70.935,332.697 66.239,320.543 62.781,307.972 H 33.21 C 14.932,307.972 0,293.151 0,274.849 v -50.205 c 0,-18.595 14.606,-33.211 33.21,-33.211 h 33.516 a 232.323,232.323 0 0 1 7.912,-19.35 188.536,188.536 0 0 1 8.335,-15.975 l -20.627,-20.694 -0.5,-0.464 C 48.924,122.029 49.044,101.227 61.809,88.244 73.94,76.579 85.646,64.151 97.663,52.315 c 12.94,-12.279 33.015,-12.736 45.763,0.087 8.077,8.13 16.357,16.139 24.524,24.188 11.554,-5.807 23.603,-10.402 36.074,-13.815 V 33.207 C 204.024,14.933 218.856,0 237.152,0 h 50.204 c 18.58,0 33.212,14.628 33.212,33.207 v 33.52 c 6.486,2.327 12.976,4.954 19.355,7.915 a 188.668,188.668 0 0 1 15.968,8.332 L 376.438,62.49 c 5.622,-5.943 13.409,-9.633 21.608,-10.211 9.192,-0.648 18.612,2.548 25.719,9.537 z"
       id="path1292"
       style="fill:#f2f2f2" />
  </g>
</svg>
