<?xml version="1.0" encoding="UTF-8"?>
<!-- Generated by Pixelmator Pro 3.6.18 -->
<svg width="1200" height="1080" viewBox="0 0 1200 1080" xmlns="http://www.w3.org/2000/svg">
    <g id="Group">
        <path id="Path" fill="#2e2e2e" fill-rule="evenodd" stroke="none" d="M 0 0.000122 L 1200 0.000122 L 1200 1080.000977 L 0 1080.000977 Z"/>
    </g>
    <g id="g1">
        <path id="path1" fill="#333333" fill-rule="evenodd" stroke="none" d="M 0.001364 1080.000488 L 0.000652 128.051331 L 951.9505 1080.001221 L 0.001364 1080.000488 Z"/>
    </g>
    <g id="g2">
        <path id="path2" fill="#ffffff" fill-rule="evenodd" stroke="none" d="M 336 461 L 356 421 L 376 461 Z"/>
        <path id="path3" fill="#ffffff" fill-rule="evenodd" stroke="none" d="M 336 619 L 356 659 L 376 619 Z"/>
        <path id="path4" fill="#ffffff" fill-rule="evenodd" stroke="none" d="M 279 520 L 239 540 L 279 560 Z"/>
        <path id="path5" fill="#ffffff" fill-rule="evenodd" stroke="none" d="M 436 520 L 476 540 L 436 560 Z"/>
        <path id="Oval" fill="#ffffff" fill-rule="evenodd" stroke="none" d="M 420 540 C 420 504.653809 391.346222 476 356 476 C 320.653778 476 292 504.653809 292 540 C 292 575.346191 320.653778 604 356 604 C 391.346222 604 420 575.346191 420 540 Z"/>
    </g>
    <g id="Group-copy">
        <path id="path6" fill="#ffffff" fill-rule="evenodd" stroke="none" d="M 812 461 L 832 421 L 852 461 Z"/>
        <path id="path7" fill="#ffffff" fill-rule="evenodd" stroke="none" d="M 812 619 L 832 659 L 852 619 Z"/>
        <path id="path8" fill="#ffffff" fill-rule="evenodd" stroke="none" d="M 755 520 L 715 540 L 755 560 Z"/>
        <path id="path9" fill="#ffffff" fill-rule="evenodd" stroke="none" d="M 912 520 L 952 540 L 912 560 Z"/>
        <path id="path10" fill="#ffffff" fill-rule="evenodd" stroke="none" d="M 896 540 C 896 504.653809 867.346191 476 832 476 C 796.653748 476 768 504.653809 768 540 C 768 575.346191 796.653748 604 832 604 C 867.346191 604 896 575.346191 896 540 Z"/>
    </g>
</svg>
